# xmcd CD database file
#
# Track frame offsets:
#	150
#	16269
#	36665
#	54836
#	71459
#	91398
#	110070
#	127164
#	144754
#	161482
#	179887
#	196428
#
# Disc length: 2818 seconds
#
# Revision: 0
# Processed by: cddbd v1.5.2PL0 Copyright (c) Steve Scherf et al.
# Submitted via: CDex 1.51
#
DISCID=ad0b000c
DTITLE=Various Artist - Country Wedding Songs
DYEAR=2010
DGENRE=Country
TTITLE0=Forever and Ever Amen - Randy travis
TTITLE1=When i Said I Do - Lisa Hartmen
TTITLE2=Me and You - Kenny Chesney
TTITLE3=Amazed - Lonestar
TTITLE4=I Swear - JMM
TTITLE5=Two People Fell In Love - Brd Paisley
TTITLE6=Not a Moment Too Soon - Tim McGraw
TTITLE7=Love Me - Collin Raye
TTITLE8=When you Say Nothing At Al - Keith Whitley
TTITLE9=When Love Finds You - Vince Gill
TTITLE10=You decorated my Life - Kenny
TTITLE11=I Do cherish you - Mark Willis
EXTD=YEAR: 2010
EXTT0=
EXTT1=
EXTT2=
EXTT3=
EXTT4=
EXTT5=
EXTT6=
EXTT7=
EXTT8=
EXTT9=
EXTT10=
EXTT11=
PLAYORDER=
